<?xml version="1.0" encoding="utf-8"?>
<!-- Generator: Adobe Illustrator 16.0.0, SVG Export Plug-In . SVG Version: 6.00 Build 0)  -->
<!DOCTYPE svg PUBLIC "-//W3C//DTD SVG 1.1//EN" "http://www.w3.org/Graphics/SVG/1.1/DTD/svg11.dtd">
<svg version="1.1" id="Layer_1" xmlns="http://www.w3.org/2000/svg" xmlns:xlink="http://www.w3.org/1999/xlink" x="0px" y="0px"
	 width="549.318px" height="189.093px" viewBox="0 0 549.318 189.093" enable-background="new 0 0 549.318 189.093"
	 xml:space="preserve">
<g>
	
		<linearGradient id="SVGID_1_" gradientUnits="userSpaceOnUse" x1="8200.7334" y1="6857.0952" x2="7872.4248" y2="7164.8115" gradientTransform="matrix(-0.634 -0.7732 -0.7732 0.634 11023.8486 1971.9463)">
		<stop  offset="0" style="stop-color:#71BE4E"/>
		<stop  offset="0.7706" style="stop-color:#C9DA2A;stop-opacity:0"/>
	</linearGradient>
	<path fill="url(#SVGID_1_)" d="M518.018,23.562c0,0,47.174,74.6-11.213,118.531c-13.512,11.136-37.408,44.998-27.6,44.597
		c20.777-2.466,42.842-22.351,56.111-46.922C548.055,116.448,559.555,64.589,518.018,23.562z"/>
	
		<radialGradient id="SVGID_2_" cx="3024.1045" cy="-1028.5771" r="204.428" gradientTransform="matrix(-0.072 -0.9974 0.5126 -0.037 1233.9282 3071.8789)" gradientUnits="userSpaceOnUse">
		<stop  offset="0" style="stop-color:#95D4D1"/>
		<stop  offset="1" style="stop-color:#00598E"/>
	</radialGradient>
	<path fill="url(#SVGID_2_)" d="M458.627,8.651c0,0-29.029,37.284,1.82,85.561c10.6,19.349,17.016,34.858,6.039,54.098
		c-7.42,10.96-16.535,20.554-21.281,16.664c-3.941-3.234-12.746-12.236-22.42-30.565C406.564,103.677,409.602,44.186,458.627,8.651z
		"/>
	
		<linearGradient id="SVGID_3_" gradientUnits="userSpaceOnUse" x1="-9663.5898" y1="9479.7031" x2="-9673.5947" y2="9248.4248" gradientTransform="matrix(0.634 0.7732 0.7732 -0.634 -629.9755 13476.2559)">
		<stop  offset="0.0572" style="stop-color:#7BCBC0;stop-opacity:0"/>
		<stop  offset="0.1549" style="stop-color:#71C2BD;stop-opacity:0.0813"/>
		<stop  offset="0.3233" style="stop-color:#54A8B3;stop-opacity:0.2215"/>
		<stop  offset="0.4367" style="stop-color:#3E94AC;stop-opacity:0.3159"/>
		<stop  offset="0.6223" style="stop-color:#2176A1;stop-opacity:0.6543"/>
		<stop  offset="0.8118" style="stop-color:#005495"/>
	</linearGradient>
	<path fill="url(#SVGID_3_)" d="M443.143,163.132c0,0-47.176-74.601,11.213-118.531C467.871,33.462,486.307-0.005,480.641,0
		c-20.779,2.465-41.467,21.928-54.799,46.927C412.572,70.094,401.605,122.104,443.143,163.132z"/>
	
		<radialGradient id="SVGID_4_" cx="-8577.9258" cy="8396.9668" r="255.0837" gradientTransform="matrix(0.072 0.9974 -0.5126 0.037 5403.9634 8239.7812)" gradientUnits="userSpaceOnUse">
		<stop  offset="0" style="stop-color:#70BE54"/>
		<stop  offset="0.8546" style="stop-color:#C9DA2A"/>
	</radialGradient>
	<path fill="url(#SVGID_4_)" d="M502.424,177.78c0,0,29.031-37.282-1.822-85.559c-10.596-19.35-17.016-34.86-6.039-54.099
		c7.422-10.959,16.537-20.553,21.283-16.664c3.939,3.234,12.744,12.236,22.418,30.565
		C554.484,82.754,551.447,142.246,502.424,177.78z"/>
	<g>
		<g>
			<path fill="#5A6870" d="M185.909,142.35c1.905,0,3.719,0.48,5.441,1.44l-0.798,1.512c-0.603-0.317-1.305-0.591-2.107-0.821
				s-1.612-0.345-2.429-0.345c-0.834,0-1.637,0.155-2.412,0.465c-0.774,0.309-1.463,0.744-2.066,1.304
				c-0.603,0.559-1.085,1.266-1.446,2.119c-0.361,0.853-0.542,1.788-0.542,2.804c0,1.341,0.297,2.548,0.892,3.619
				c0.596,1.072,1.417,1.905,2.465,2.501c1.047,0.595,2.218,0.893,3.513,0.893c1.532,0,2.778-0.46,3.738-1.381v-4.322h-4.81v-1.667
				h6.775v6.644c-0.214,0.246-0.462,0.485-0.745,0.715c-0.281,0.23-0.674,0.496-1.178,0.798c-0.505,0.301-1.125,0.546-1.864,0.732
				c-0.738,0.187-1.536,0.28-2.393,0.28c-1.127,0-2.166-0.169-3.114-0.506s-1.745-0.787-2.388-1.351
				c-0.642-0.563-1.187-1.22-1.631-1.971c-0.444-0.75-0.77-1.534-0.977-2.351c-0.206-0.818-0.31-1.651-0.31-2.5
				c0-0.889,0.114-1.752,0.34-2.59c0.227-0.837,0.574-1.621,1.042-2.351c0.468-0.73,1.03-1.367,1.685-1.911s1.438-0.972,2.352-1.286
				C183.856,142.507,184.845,142.35,185.909,142.35z"/>
			<path fill="#5A6870" d="M208.531,147.124c0,0.564-0.067,1.1-0.202,1.607c-0.135,0.508-0.345,0.992-0.631,1.453
				c-0.286,0.46-0.681,0.859-1.185,1.197c-0.504,0.338-1.094,0.585-1.768,0.744l4.774,7.275h-2.262l-4.584-7.049h-3.274v7.049
				h-2.036V142.48h6.215c0.286,0,0.543,0.008,0.774,0.024c0.23,0.016,0.526,0.058,0.887,0.125c0.361,0.067,0.681,0.159,0.958,0.274
				c0.278,0.115,0.57,0.29,0.875,0.524c0.306,0.234,0.56,0.51,0.762,0.828c0.203,0.318,0.369,0.722,0.5,1.214
				C208.466,145.961,208.531,146.513,208.531,147.124z M199.398,150.565h2.918c0.404,0,0.761-0.014,1.071-0.042
				c0.31-0.028,0.673-0.103,1.089-0.226c0.417-0.123,0.763-0.294,1.037-0.512c0.274-0.218,0.507-0.536,0.703-0.952
				c0.194-0.417,0.291-0.911,0.291-1.482c0-0.405-0.051-0.77-0.155-1.095c-0.104-0.326-0.233-0.594-0.393-0.804
				c-0.158-0.21-0.353-0.393-0.583-0.548c-0.231-0.154-0.453-0.272-0.667-0.351c-0.214-0.079-0.453-0.143-0.715-0.191
				c-0.262-0.048-0.478-0.077-0.648-0.089c-0.171-0.012-0.352-0.018-0.542-0.018h-3.405V150.565z"/>
			<path fill="#5A6870" d="M214.484,142.48h2.024v10.966c0,0.675,0.058,1.254,0.173,1.739c0.114,0.484,0.359,0.937,0.732,1.357
				c0.793,0.897,1.965,1.345,3.513,1.345c1.12,0,2.054-0.244,2.804-0.732c0.75-0.488,1.236-1.176,1.458-2.065
				c0.103-0.421,0.155-0.969,0.155-1.643V142.48h2c0,2.548,0.002,4.632,0.006,6.251c0.004,1.619,0.006,2.657,0.006,3.114
				c0,0.457,0.001,0.821,0.006,1.095c0.003,0.274,0.005,0.502,0.005,0.685c0,0.365-0.007,0.684-0.024,0.958
				c-0.016,0.274-0.069,0.633-0.161,1.077c-0.091,0.445-0.216,0.832-0.374,1.161c-0.16,0.329-0.4,0.681-0.721,1.053
				c-0.322,0.373-0.703,0.681-1.143,0.923c-0.441,0.242-1.005,0.443-1.691,0.602c-0.687,0.158-1.463,0.238-2.328,0.238
				c-0.929,0-1.762-0.098-2.5-0.292c-0.738-0.194-1.317-0.426-1.739-0.697c-0.42-0.269-0.783-0.595-1.089-0.976
				c-0.305-0.381-0.516-0.708-0.631-0.982c-0.114-0.274-0.208-0.562-0.279-0.864c-0.135-0.523-0.203-1.266-0.203-2.226V142.48z"/>
			<path fill="#5A6870" d="M233.32,142.48h5.585c0.262,0,0.479,0.002,0.649,0.006c0.17,0.004,0.417,0.02,0.744,0.048
				c0.326,0.028,0.603,0.067,0.834,0.119c0.23,0.052,0.502,0.131,0.815,0.238c0.313,0.107,0.581,0.232,0.804,0.375
				c0.222,0.143,0.454,0.331,0.696,0.565c0.242,0.234,0.436,0.494,0.583,0.78c0.147,0.285,0.269,0.631,0.364,1.036
				c0.095,0.405,0.142,0.849,0.142,1.333c0,0.698-0.079,1.326-0.237,1.881c-0.158,0.556-0.364,1.02-0.613,1.393
				c-0.251,0.373-0.574,0.694-0.971,0.964c-0.396,0.271-0.79,0.479-1.178,0.625c-0.389,0.147-0.848,0.262-1.376,0.345
				c-0.528,0.083-1,0.137-1.417,0.161s-0.899,0.036-1.447,0.036c-0.54,0-1.19-0.028-1.952-0.083v7.096h-2.025V142.48z
				 M235.345,150.518c0.762,0.064,1.484,0.095,2.167,0.095c0.389,0,0.714-0.004,0.976-0.012c0.262-0.008,0.584-0.036,0.965-0.083
				c0.38-0.048,0.698-0.113,0.952-0.197c0.254-0.083,0.524-0.208,0.81-0.375c0.285-0.167,0.514-0.363,0.684-0.589
				c0.17-0.226,0.312-0.512,0.423-0.858c0.11-0.345,0.167-0.74,0.167-1.185c0-0.46-0.061-0.867-0.18-1.22
				c-0.119-0.353-0.292-0.637-0.518-0.852c-0.227-0.214-0.465-0.391-0.714-0.53c-0.251-0.139-0.552-0.238-0.905-0.298
				c-0.354-0.06-0.663-0.1-0.929-0.119c-0.266-0.02-0.582-0.03-0.947-0.03h-2.952V150.518z"/>
			<path fill="#5A6870" d="M256.336,142.302c1.12,0,2.165,0.197,3.137,0.59c0.973,0.393,1.814,0.947,2.525,1.661
				c0.71,0.714,1.268,1.605,1.673,2.673c0.405,1.068,0.606,2.24,0.606,3.519c0,1.73-0.343,3.268-1.03,4.614
				c-0.686,1.345-1.639,2.385-2.857,3.12c-1.219,0.734-2.598,1.101-4.138,1.101c-1.016,0-1.989-0.181-2.917-0.542
				c-0.928-0.361-1.766-0.887-2.512-1.578c-0.747-0.69-1.342-1.593-1.786-2.709c-0.445-1.115-0.667-2.371-0.667-3.768
				c0-1.31,0.202-2.509,0.607-3.596c0.405-1.088,0.96-2.002,1.667-2.744c0.707-0.742,1.548-1.318,2.524-1.727
				C254.146,142.507,255.201,142.302,256.336,142.302z M256.229,144.076c-0.723,0-1.417,0.135-2.083,0.405
				c-0.667,0.27-1.28,0.665-1.84,1.185c-0.56,0.52-1.009,1.219-1.346,2.096c-0.337,0.877-0.506,1.867-0.506,2.971
				c0,1.055,0.155,2.03,0.464,2.923c0.309,0.893,0.73,1.641,1.262,2.244c0.532,0.603,1.162,1.072,1.887,1.405
				c0.727,0.333,1.506,0.5,2.34,0.5c0.563,0,1.118-0.083,1.661-0.25c0.543-0.167,1.065-0.431,1.566-0.792
				c0.5-0.361,0.938-0.804,1.315-1.328c0.377-0.524,0.679-1.171,0.905-1.941c0.226-0.77,0.339-1.615,0.339-2.536
				c0-0.937-0.119-1.794-0.357-2.572c-0.238-0.778-0.553-1.429-0.946-1.953c-0.393-0.524-0.849-0.966-1.37-1.328
				c-0.52-0.361-1.055-0.623-1.607-0.785C257.363,144.158,256.801,144.076,256.229,144.076z"/>
			<path fill="#5A6870" d="M274.22,142.48h2.404l4.834,14.776l4.834-14.776h2.227l-5.895,16.919h-2.512L274.22,142.48z"/>
			<path fill="#5A6870" d="M292.688,159.4V142.48h9.918v1.786h-7.895v5.524h7.24v1.786h-7.24v6.037h7.895v1.786H292.688z"/>
			<path fill="#5A6870" d="M319.131,147.124c0,0.564-0.066,1.1-0.201,1.607c-0.135,0.508-0.346,0.992-0.631,1.453
				s-0.682,0.859-1.186,1.197c-0.504,0.338-1.094,0.585-1.768,0.744l4.773,7.275h-2.262l-4.584-7.049H310v7.049h-2.037V142.48h6.217
				c0.283,0,0.543,0.008,0.773,0.024c0.23,0.016,0.525,0.058,0.887,0.125s0.68,0.159,0.959,0.274
				c0.277,0.115,0.568,0.29,0.875,0.524c0.305,0.234,0.559,0.51,0.762,0.828c0.203,0.318,0.369,0.722,0.5,1.214
				C319.066,145.961,319.131,146.513,319.131,147.124z M310,150.565h2.918c0.402,0,0.76-0.014,1.07-0.042
				c0.309-0.028,0.672-0.103,1.09-0.226c0.416-0.123,0.762-0.294,1.035-0.512c0.273-0.218,0.508-0.536,0.703-0.952
				c0.193-0.417,0.291-0.911,0.291-1.482c0-0.405-0.051-0.77-0.154-1.095c-0.104-0.326-0.234-0.594-0.393-0.804
				c-0.16-0.21-0.354-0.393-0.584-0.548c-0.23-0.154-0.451-0.272-0.666-0.351c-0.215-0.079-0.453-0.143-0.715-0.191
				s-0.479-0.077-0.648-0.089c-0.172-0.012-0.352-0.018-0.543-0.018H310V150.565z"/>
			<path fill="#5A6870" d="M325.443,142.48h2.023V159.4h-2.023V142.48z"/>
			<path fill="#5A6870" d="M333.777,142.48h2.559l9.217,14.157V142.48h2.023V159.4h-2.561l-9.215-14.181V159.4h-2.023V142.48z"/>
			<path fill="#5A6870" d="M351.088,142.48h13.336v1.786h-5.654V159.4h-2.025v-15.133h-5.656V142.48z"/>
		</g>
	</g>
	<g>
		<path fill="#5A6870" d="M22.731,118.199c-6.636,0-15.008-1.225-20.726-4.492c-0.918-0.51-1.327-1.225-0.714-2.45l2.451-5.717
			c0.613-1.225,1.123-1.531,2.654-0.919c4.9,2.246,11.537,3.676,16.131,3.676c5.718,0,8.576-2.45,8.576-6.024
			c0-3.88-3.777-5.82-11.026-8.474C9.051,89.714,3.436,85.937,3.436,77.667c0-8.882,6.534-15.416,19.091-15.416
			c5.718,0,11.537,1.021,16.846,3.165c1.123,0.511,1.225,1.327,0.919,2.45l-2.349,5.82c-0.407,1.123-1.021,1.123-2.041,0.715
			c-5.309-1.837-8.882-2.45-13.477-2.45c-5.002,0-7.249,2.552-7.249,5.105c0,3.676,2.858,5.207,10.414,8.065
			c8.78,3.267,17.253,6.943,17.253,16.948C42.844,112.992,34.166,118.199,22.731,118.199z"/>
		<path fill="#5A6870" d="M86.849,107.377V65.11c0-1.43,0.408-1.736,1.939-1.736h7.963c1.328,0,1.939,0.306,1.939,1.736v43.697
			c0,4.798-2.041,7.555-6.84,8.474c-3.472,0.613-9.699,0.919-13.273,0.919c-18.377,0-25.217-7.249-25.217-26.136V65.11
			c0-1.43,0.409-1.736,1.939-1.736h7.964c1.327,0,1.939,0.306,1.939,1.736v27.157c0,10.618,2.144,15.723,13.579,15.723
			C80.212,107.99,83.173,107.99,86.849,107.377z"/>
		<path fill="#5A6870" d="M123.808,73.073v42.267c0,1.531-0.408,1.736-1.939,1.736h-7.963c-1.328,0-1.939-0.307-1.939-1.736V71.644
			c0-4.901,1.327-7.555,6.84-8.474c2.858-0.408,9.801-0.919,13.374-0.919c18.071,0,26.136,7.249,26.136,26.136v26.953
			c0,1.531-0.408,1.736-1.939,1.736h-8.066c-1.327,0-1.939-0.307-1.939-1.736V88.183c0-10.618-3.062-15.722-14.498-15.722
			C130.445,72.46,127.484,72.46,123.808,73.073z"/>
		<path fill="#5A6870" d="M203.037,116.668c-4.594,1.429-9.801,1.531-12.354,1.531c-11.128,0-15.314-4.697-15.314-14.498V72.563
			h-7.249c-1.429,0-1.634-0.715-1.634-1.736v-4.186c0-1.225,0.306-1.634,1.634-1.94l7.759-1.736l1.328-9.699
			c0.204-1.531,0.816-1.838,2.246-2.348l5.922-2.042c1.124-0.204,1.838,0.102,1.838,1.634v12.966h10.924
			c1.43,0,1.633,0.715,1.633,1.634v5.718c0,1.225-0.102,1.736-1.633,1.736h-10.924v29.607c0,4.288,2.042,5.718,6.228,5.718
			c1.736,0,5.718-0.408,7.657-0.715c1.327-0.204,1.633,0.102,1.736,1.021l1.123,6.534
			C204.058,115.545,204.262,116.157,203.037,116.668z"/>
		<path fill="#5A6870" d="M257.148,84.814c0,7.147-3.573,8.883-8.167,8.985h-27.158c0.204,10.617,6.433,14.191,14.294,14.191
			c4.288,0,8.882-1.225,11.945-2.756c1.226-0.511,1.735-0.409,2.247,0.612l2.756,5.82c0.511,1.123,0.307,1.837-0.715,2.348
			c-5.104,3.165-11.74,4.186-17.253,4.186c-16.438,0-25.423-8.474-25.423-27.668c0-17.867,10.21-28.281,24.402-28.281
			C249.695,62.251,257.148,70.929,257.148,84.814z M222.231,85.222h23.482c0-7.249-2.246-13.068-11.435-13.068
			C227.03,72.154,222.64,78.382,222.231,85.222z"/>
		<path fill="#5A6870" d="M302.461,105.131c1.531-0.715,1.939-0.409,2.348,0.715l2.553,5.922c0.715,1.225,0.51,1.94-0.613,2.552
			c-5.514,3.063-12.557,3.88-18.07,3.88c-15.212,0-23.584-9.393-23.584-27.566c0-17.254,9.495-28.383,24.708-28.383
			c5.514,0,10.924,1.123,15.518,3.573c1.227,0.613,1.531,1.225,0.816,2.552l-2.551,6.023c-0.512,1.123-0.92,1.327-2.553,0.715
			c-3.268-1.225-6.84-2.246-10.719-2.246c-9.293,0-13.069,8.372-13.069,17.765c0,9.495,2.756,17.152,13.272,17.152
			C294.906,107.785,299.602,106.458,302.461,105.131z"/>
		<path fill="#5A6870" d="M361.881,117.076h-8.064c-1.328,0-1.939-0.307-1.939-1.736V86.754c0-9.189-3.473-14.191-11.945-14.191
			c-3.473,0-7.76,0.408-10.619,1.634v41.144c0,1.531-0.408,1.736-1.939,1.736h-7.965c-1.326,0-1.938-0.307-1.938-1.736V44.18
			c0-1.429,0.611-1.736,1.938-1.736h7.965c1.531,0,1.939,0.306,1.939,1.736v20.011c3.881-1.327,9.088-1.94,12.762-1.94
			c15.008,0,21.85,8.882,21.85,23.686v29.403C363.924,116.872,363.412,117.076,361.881,117.076z"/>
	</g>
	<g opacity="0.2">
		<linearGradient id="SVGID_5_" gradientUnits="userSpaceOnUse" x1="21.9219" y1="-25.4072" x2="21.9219" y2="91.8619">
			<stop  offset="0.7719" style="stop-color:#FFFFFF"/>
			<stop  offset="1" style="stop-color:#FFFFFF;stop-opacity:0"/>
		</linearGradient>
		<path fill="url(#SVGID_5_)" d="M22.731,118.159c-6.636,0-15.008-1.225-20.726-4.492c-0.918-0.51-1.327-1.225-0.714-2.45
			l2.451-5.717c0.613-1.225,1.123-1.531,2.654-0.919c4.9,2.246,11.537,3.676,16.131,3.676c5.718,0,8.576-2.45,8.576-6.024
			c0-3.88-3.777-5.82-11.026-8.474C9.051,89.674,3.436,85.897,3.436,77.627c0-8.882,6.534-15.416,19.091-15.416
			c5.718,0,11.537,1.021,16.846,3.165c1.123,0.511,1.225,1.327,0.919,2.45l-2.349,5.819c-0.407,1.123-1.021,1.123-2.041,0.715
			c-5.309-1.837-8.882-2.45-13.477-2.45c-5.002,0-7.249,2.552-7.249,5.105c0,3.676,2.858,5.207,10.414,8.065
			c8.78,3.267,17.253,6.943,17.253,16.948C42.844,112.952,34.166,118.159,22.731,118.159z"/>
		<linearGradient id="SVGID_6_" gradientUnits="userSpaceOnUse" x1="76.0264" y1="-25.407" x2="76.0264" y2="91.8625">
			<stop  offset="0.7719" style="stop-color:#FFFFFF"/>
			<stop  offset="1" style="stop-color:#FFFFFF;stop-opacity:0"/>
		</linearGradient>
		<path fill="url(#SVGID_6_)" d="M86.849,107.337V65.07c0-1.43,0.408-1.736,1.939-1.736h7.963c1.328,0,1.939,0.306,1.939,1.736
			v43.697c0,4.798-2.041,7.555-6.84,8.474c-3.472,0.613-9.699,0.919-13.273,0.919c-18.377,0-25.217-7.249-25.217-26.136V65.07
			c0-1.43,0.409-1.736,1.939-1.736h7.964c1.327,0,1.939,0.306,1.939,1.736v27.157c0,10.618,2.144,15.723,13.579,15.723
			C80.212,107.95,83.173,107.95,86.849,107.337z"/>
		<linearGradient id="SVGID_7_" gradientUnits="userSpaceOnUse" x1="135.1411" y1="-25.4067" x2="135.1411" y2="91.8627">
			<stop  offset="0.7719" style="stop-color:#FFFFFF"/>
			<stop  offset="1" style="stop-color:#FFFFFF;stop-opacity:0"/>
		</linearGradient>
		<path fill="url(#SVGID_7_)" d="M123.808,73.033v42.267c0,1.531-0.408,1.736-1.939,1.736h-7.963c-1.328,0-1.939-0.306-1.939-1.736
			V71.604c0-4.901,1.327-7.555,6.84-8.474c2.858-0.408,9.801-0.919,13.374-0.919c18.071,0,26.136,7.249,26.136,26.136v26.953
			c0,1.531-0.408,1.736-1.939,1.736h-8.066c-1.327,0-1.939-0.306-1.939-1.736V88.143c0-10.618-3.062-15.722-14.498-15.722
			C130.445,72.421,127.484,72.421,123.808,73.033z"/>
		<linearGradient id="SVGID_8_" gradientUnits="userSpaceOnUse" x1="185.2607" y1="-25.4072" x2="185.2607" y2="91.8624">
			<stop  offset="0.7719" style="stop-color:#FFFFFF"/>
			<stop  offset="1" style="stop-color:#FFFFFF;stop-opacity:0"/>
		</linearGradient>
		<path fill="url(#SVGID_8_)" d="M203.037,116.628c-4.594,1.429-9.801,1.531-12.354,1.531c-11.128,0-15.314-4.697-15.314-14.498
			V72.523h-7.249c-1.429,0-1.634-0.715-1.634-1.736v-4.186c0-1.225,0.306-1.633,1.634-1.94l7.759-1.736l1.328-9.699
			c0.204-1.531,0.816-1.838,2.246-2.348l5.922-2.042c1.124-0.204,1.838,0.102,1.838,1.634v12.967h10.924
			c1.43,0,1.633,0.715,1.633,1.634v5.717c0,1.225-0.102,1.736-1.633,1.736h-10.924v29.607c0,4.288,2.042,5.718,6.228,5.718
			c1.736,0,5.718-0.408,7.657-0.715c1.327-0.204,1.633,0.102,1.736,1.021l1.123,6.534
			C204.058,115.505,204.262,116.117,203.037,116.628z"/>
		<linearGradient id="SVGID_9_" gradientUnits="userSpaceOnUse" x1="233.4106" y1="-25.4072" x2="233.4106" y2="91.8619">
			<stop  offset="0.7719" style="stop-color:#FFFFFF"/>
			<stop  offset="1" style="stop-color:#FFFFFF;stop-opacity:0"/>
		</linearGradient>
		<path fill="url(#SVGID_9_)" d="M257.148,84.774c0,7.147-3.573,8.883-8.167,8.985h-27.158c0.204,10.617,6.433,14.191,14.294,14.191
			c4.288,0,8.882-1.225,11.945-2.756c1.226-0.511,1.735-0.409,2.247,0.613l2.756,5.82c0.511,1.123,0.307,1.837-0.715,2.348
			c-5.104,3.165-11.74,4.186-17.253,4.186c-16.438,0-25.423-8.474-25.423-27.668c0-17.867,10.21-28.281,24.402-28.281
			C249.695,62.211,257.148,70.889,257.148,84.774z M222.231,85.182h23.482c0-7.249-2.246-13.068-11.435-13.068
			C227.03,72.114,222.64,78.342,222.231,85.182z"/>
		<linearGradient id="SVGID_10_" gradientUnits="userSpaceOnUse" x1="286.4355" y1="-25.4072" x2="286.4355" y2="91.8619">
			<stop  offset="0.7719" style="stop-color:#FFFFFF"/>
			<stop  offset="1" style="stop-color:#FFFFFF;stop-opacity:0"/>
		</linearGradient>
		<path fill="url(#SVGID_10_)" d="M302.461,105.091c1.531-0.715,1.939-0.409,2.348,0.715l2.553,5.922
			c0.715,1.225,0.51,1.939-0.613,2.552c-5.514,3.063-12.557,3.88-18.07,3.88c-15.212,0-23.584-9.393-23.584-27.566
			c0-17.254,9.495-28.382,24.708-28.382c5.514,0,10.924,1.123,15.518,3.573c1.227,0.613,1.531,1.225,0.816,2.552l-2.551,6.023
			c-0.512,1.123-0.92,1.327-2.553,0.714c-3.268-1.225-6.84-2.246-10.719-2.246c-9.293,0-13.069,8.372-13.069,17.764
			c0,9.495,2.756,17.152,13.272,17.152C294.906,107.745,299.602,106.418,302.461,105.091z"/>
		<linearGradient id="SVGID_11_" gradientUnits="userSpaceOnUse" x1="340.6973" y1="-25.4072" x2="340.6973" y2="91.8618">
			<stop  offset="0.7719" style="stop-color:#FFFFFF"/>
			<stop  offset="1" style="stop-color:#FFFFFF;stop-opacity:0"/>
		</linearGradient>
		<path fill="url(#SVGID_11_)" d="M361.881,117.036h-8.064c-1.328,0-1.939-0.306-1.939-1.736V86.714
			c0-9.189-3.473-14.191-11.945-14.191c-3.473,0-7.76,0.408-10.619,1.633v41.144c0,1.531-0.408,1.736-1.939,1.736h-7.965
			c-1.326,0-1.938-0.306-1.938-1.736V44.14c0-1.429,0.611-1.736,1.938-1.736h7.965c1.531,0,1.939,0.306,1.939,1.736v20.011
			c3.881-1.328,9.088-1.94,12.762-1.94c15.008,0,21.85,8.882,21.85,23.686v29.404C363.924,116.832,363.412,117.036,361.881,117.036z
			"/>
	</g>
</g>
</svg>
